HIERARCHY
ROOT hip
{
  OFFSET 0 0 0
  CHANNELS 6 Xposition Yposition Zposition Zrotation Yrotation Xrotation
  JOINT abdomen
  {
    OFFSET 0 20.6881 -0.73152
    CHANNELS 3 Zrotation Xrotation Yrotation
    JOINT chest
    {
      OFFSET 0 11.7043 -0.48768
      CHANNELS 3 Zrotation Xrotation Yrotation
      JOINT neck
      {
        OFFSET 0 22.1894 -2.19456
        CHANNELS 3 Zrotation Xrotation Yrotation
        JOINT head
        {
          OFFSET -0.24384 7.07133 1.2192
          CHANNELS 3 Zrotation Xrotation Yrotation
          JOINT leftEye
          {
            OFFSET 4.14528 8.04674 8.04672
            CHANNELS 3 Zrotation Xrotation Yrotation
            End Site
            {
              OFFSET 1 0 0
            }
          }
          JOINT rightEye
          {
            OFFSET -3.6576 8.04674 8.04672
            CHANNELS 3 Zrotation Xrotation Yrotation
            End Site
            {
              OFFSET 1 0 0
            }
          }
        }
      }
      JOINT rCollar
      {
        OFFSET -2.68224 19.2634 -4.8768
        CHANNELS 3 Zrotation Xrotation Yrotation
        JOINT rShldr
        {
          OFFSET -8.77824 -1.95073 1.46304
          CHANNELS 3 Zrotation Xrotation Yrotation
          JOINT rForeArm
          {
            OFFSET -28.1742 -1.7115 0.48768
            CHANNELS 3 Zrotation Xrotation Yrotation
            JOINT rHand
            {
              OFFSET -22.5879 0.773209 7.07136
              CHANNELS 3 Zrotation Xrotation Yrotation
              JOINT rThumb1
              {
                OFFSET -1.2192 -0.487915 3.41376
                CHANNELS 3 Zrotation Xrotation Yrotation
                JOINT rThumb2
                {
                  OFFSET -3.37035 -0.52449 3.41376
                  CHANNELS 3 Zrotation Xrotation Yrotation
                  End Site
                  {
                    OFFSET -1.78271 -1.18214 1.43049
                  }
                }
              }
              JOINT rIndex1
              {
                OFFSET -7.75947 0.938293 5.60832
                CHANNELS 3 Zrotation Xrotation Yrotation
                JOINT rIndex2
                {
                  OFFSET -2.54057 -0.884171 1.56538
                  CHANNELS 3 Zrotation Xrotation Yrotation
                  End Site
                  {
                    OFFSET -1.62519 -0.234802 1.16502
                  }
                }
              }
              JOINT rMid1
              {
                OFFSET -8.24714 1.18213 3.41376
                CHANNELS 3 Zrotation Xrotation Yrotation
                JOINT rMid2
                {
                  OFFSET -3.10165 -0.590103 1.0647
                  CHANNELS 3 Zrotation Xrotation Yrotation
                  End Site
                  {
                    OFFSET -2.48547 -0.328903 0.83742
                  }
                }
              }
              JOINT rRing1
              {
                OFFSET -8.82822 0.546677 1.51678
                CHANNELS 3 Zrotation Xrotation Yrotation
                JOINT rRing2
                {
                  OFFSET -2.60934 -0.819778 -0.0198488
                  CHANNELS 3 Zrotation Xrotation Yrotation
                  End Site
                  {
                    OFFSET -2.33842 -0.294052 0.168128
                  }
                }
              }
              JOINT rPinky1
              {
                OFFSET -8.27202 -0.0477905 -0.4584
                CHANNELS 3 Zrotation Xrotation Yrotation
                JOINT rPinky2
                {
                  OFFSET -1.82734 -0.647385 -0.700984
                  CHANNELS 3 Zrotation Xrotation Yrotation
                  End Site
                  {
                    OFFSET -1.69225 -0.51767 -0.607171
                  }
                }
              }
            }
          }
        }
      }
      JOINT lCollar
      {
        OFFSET 2.68224 19.2634 -4.8768
        CHANNELS 3 Zrotation Xrotation Yrotation
        JOINT lShldr
        {
          OFFSET 8.77824 -1.95073 1.46304
          CHANNELS 3 Zrotation Xrotation Yrotation
          JOINT lForeArm
          {
            OFFSET 28.1742 -1.7115 0.48768
            CHANNELS 3 Zrotation Xrotation Yrotation
            JOINT lHand
            {
              OFFSET 22.5879 0.773209 7.07136
              CHANNELS 3 Zrotation Xrotation Yrotation
              JOINT lThumb1
              {
                OFFSET 1.2192 -0.487915 3.41376
                CHANNELS 3 Zrotation Xrotation Yrotation
                JOINT lThumb2
                {
                  OFFSET 3.37035 -0.52449 3.41376
                  CHANNELS 3 Zrotation Xrotation Yrotation
                  End Site
                  {
                    OFFSET 1.78271 -1.18214 1.43049
                  }
                }
              }
              JOINT lIndex1
              {
                OFFSET 7.75947 0.938293 5.60832
                CHANNELS 3 Zrotation Xrotation Yrotation
                JOINT lIndex2
                {
                  OFFSET 2.54057 -0.884171 1.56538
                  CHANNELS 3 Zrotation Xrotation Yrotation
                  End Site
                  {
                    OFFSET 1.62519 -0.234802 1.16502
                  }
                }
              }
              JOINT lMid1
              {
                OFFSET 8.24714 1.18213 3.41376
                CHANNELS 3 Zrotation Xrotation Yrotation
                JOINT lMid2
                {
                  OFFSET 3.10165 -0.590103 1.0647
                  CHANNELS 3 Zrotation Xrotation Yrotation
                  End Site
                  {
                    OFFSET 2.48547 -0.328903 0.83742
                  }
                }
              }
              JOINT lRing1
              {
                OFFSET 8.82822 0.546677 1.51678
                CHANNELS 3 Zrotation Xrotation Yrotation
                JOINT lRing2
                {
                  OFFSET 2.60934 -0.819778 -0.0198488
                  CHANNELS 3 Zrotation Xrotation Yrotation
                  End Site
                  {
                    OFFSET 2.33842 -0.294052 0.168128
                  }
                }
              }
              JOINT lPinky1
              {
                OFFSET 8.27202 -0.0477905 -0.4584
                CHANNELS 3 Zrotation Xrotation Yrotation
                JOINT lPinky2
                {
                  OFFSET 1.82734 -0.647385 -0.700984
                  CHANNELS 3 Zrotation Xrotation Yrotation
                  End Site
                  {
                    OFFSET 1.69225 -0.51767 -0.607171
                  }
                }
              }
            }
          }
        }
      }
    }
  }
  JOINT rButtock
  {
    OFFSET -8.77824 4.35084 1.2192
    CHANNELS 3 Zrotation Xrotation Yrotation
    JOINT rThigh
    {
      OFFSET 0 -1.70687 -2.19456
      CHANNELS 3 Zrotation Xrotation Yrotation
      JOINT rShin
      {
        OFFSET 0 -36.8199 0.73152
        CHANNELS 3 Zrotation Xrotation Yrotation
        JOINT rFoot
        {
          OFFSET 0.73152 -45.1104 -5.12064
          CHANNELS 3 Zrotation Xrotation Yrotation
          End Site
          {
            OFFSET -1.1221 -3.69964 12.103
          }
        }
      }
    }
  }
  JOINT lButtock
  {
    OFFSET 8.77824 4.35084 1.2192
    CHANNELS 3 Zrotation Xrotation Yrotation
    JOINT lThigh
    {
      OFFSET 0 -1.70687 -2.19456
      CHANNELS 3 Zrotation Xrotation Yrotation
      JOINT lShin
      {
        OFFSET 0 -36.8199 0.73152
        CHANNELS 3 Zrotation Xrotation Yrotation
        JOINT lFoot
        {
          OFFSET -0.73152 -45.1104 -5.12064
          CHANNELS 3 Zrotation Xrotation Yrotation
          End Site
          {
            OFFSET 1.1221 -3.69964 12.103
          }
        }
      }
    }
  }
}
MOTION
Frames:	6
Frame Time:	0.00833333
24.3996 84.9401 30.7482 5.5686 -49.065 -5.1532 -0.549759 10.8121 -0.371551 2.17787 -3.60704 0.0199816 -14.511 -0.736956 -8.21758 20.9801 9.46876 -14.4408 -0.0 0.0 0.0 -0.0 0.0 0.0 2.02745e-13 3.68997e-13 -7.88728e-13 83.5005 5.52894 -6.24882 -11.7908 -5.30298 21.2057 -0.141437 10.6602 1.5159 6.11467e-10 -2.34472e-09 -1.06183e-09 1.04766e-09 -4.05819e-09 -1.84505e-09 6.11472e-10 -2.34472e-09 -1.06184e-09 7.73091 5.47488 0.417314 6.1147e-10 -2.34472e-09 -1.06184e-09 2.90554 0.965183 0.102902 6.11468e-10 -2.34473e-09 -1.06183e-09 10.2786 0.731801 0.0259123 6.11458e-10 -2.34473e-09 -1.06182e-09 2.22167 -0.733487 -0.20892 2.02739e-13 3.68992e-13 -7.88976e-13 -73.8651 20.3459 -0.0920307 17.2726 -9.9255 -32.4081 0.00304415 1.57522 -0.221438 7.12457e-10 -5.90635e-09 -2.05653e-09 1.22783e-09 -1.02308e-08 -3.56114e-09 7.12454e-10 -5.90635e-09 -2.05651e-09 -7.73091 5.47488 -0.417314 7.12458e-10 -5.90634e-09 -2.05652e-09 -2.90554 0.965183 -0.102902 7.1245e-10 -5.90635e-09 -2.05653e-09 -10.2786 0.731801 -0.0259123 7.12455e-10 -5.90635e-09 -2.05653e-09 -2.22167 -0.733487 0.20892 -2.03217e-16 0.0 -3.88251e-19 3.96908 -19.9838 -6.99302 -0.114476 22.3204 -0.00368199 -1.02876 0.427355 -6.4164 2.03217e-16 0.0 3.88251e-19 0.977012 2.04025 0.0294736 0.284003 37.5814 -0.701642 5.48359 23.654 -15.1646
23.7019 84.9566 30.9902 4.8948 -49.8497 -4.6632 -0.0421175 10.9078 -0.148076 2.11446 -3.67651 0.105607 -14.3713 -0.67267 -8.20713 20.8313 9.32962 -14.438 -0.0 0.0 0.0 -0.0 0.0 0.0 1.66053e-13 3.12759e-13 -7.3577e-13 83.4704 6.38025 -6.1072 -11.9269 -5.39791 21.4679 -0.131217 10.2841 1.46117 8.8542e-10 -2.0355e-09 -1.25205e-09 1.51983e-09 -3.52333e-09 -2.17632e-09 8.85425e-10 -2.0355e-09 -1.25206e-09 7.73091 5.47488 0.417314 8.85422e-10 -2.0355e-09 -1.25206e-09 2.90554 0.965183 0.102902 8.85423e-10 -2.03551e-09 -1.25205e-09 10.2786 0.731801 0.0259123 8.85411e-10 -2.03551e-09 -1.25204e-09 2.22167 -0.733487 -0.20892 1.65994e-13 3.12753e-13 -7.36002e-13 -74.1457 20.8418 0.217302 17.2692 -9.92199 -32.4007 0.00372521 1.76933 -0.24874 8.76508e-10 -5.21926e-09 -1.63913e-09 1.51255e-09 -9.04147e-09 -2.83921e-09 8.76505e-10 -5.21926e-09 -1.63911e-09 -7.73091 5.47488 -0.417314 8.76509e-10 -5.21925e-09 -1.63912e-09 -2.90554 0.965183 -0.102902 8.76501e-10 -5.21926e-09 -1.63912e-09 -10.2786 0.731801 -0.0259123 8.76508e-10 -5.21926e-09 -1.63912e-09 -2.22167 -0.733487 0.20892 -2.03217e-16 0.0 -3.88251e-19 4.70721 -19.3234 -6.77006 -0.108508 22.0267 -0.0304228 -1.01862 0.169186 -5.98778 2.03217e-16 0.0 3.88251e-19 1.61958 0.534857 0.410608 0.326171 40.0878 -0.776382 6.12293 24.8564 -16.2705
23.0192 84.9612 31.2267 4.5264 -50.8146 -4.3535 0.412625 10.9861 0.13786 2.03867 -3.74624 0.206727 -14.1165 -0.623186 -8.18244 20.5454 9.18822 -14.4238 -0.0 0.0 0.0 -0.0 0.0 0.0 9.28792e-14 2.09319e-13 -5.46388e-13 83.4396 7.36388 -5.93113 -12.0746 -5.50173 21.7534 -0.119963 9.84704 1.39776 1.18886e-09 -1.27959e-09 -1.55927e-09 2.04203e-09 -2.21578e-09 -2.70959e-09 1.18887e-09 -1.27959e-09 -1.55928e-09 7.73091 5.47488 0.417314 1.18887e-09 -1.27959e-09 -1.55928e-09 2.90554 0.965183 0.102902 1.18887e-09 -1.27959e-09 -1.55928e-09 10.2786 0.731801 0.0259123 1.18886e-09 -1.27959e-09 -1.55927e-09 2.22167 -0.733487 -0.20892 9.27359e-14 2.09311e-13 -5.4659e-13 -74.4183 21.3218 0.510389 17.2698 -9.92249 -32.402 0.00497709 2.0368 -0.286374 1.04453e-09 -3.56083e-09 -7.65342e-10 1.8056e-09 -6.1697e-09 -1.32753e-09 1.04453e-09 -3.56082e-09 -7.65323e-10 -7.73091 5.47488 -0.417314 1.04453e-09 -3.56082e-09 -7.65336e-10 -2.90554 0.965183 -0.102902 1.04452e-09 -3.56083e-09 -7.65338e-10 -10.2786 0.731801 -0.0259123 1.04453e-09 -3.56082e-09 -7.6534e-10 -2.22167 -0.733487 0.20892 -2.03217e-16 0.0 -3.88251e-19 5.44097 -18.7228 -6.45499 -0.102139 21.7987 -0.0523443 -1.0123 -0.116529 -5.59095 2.03217e-16 0.0 3.88251e-19 2.25605 -0.957487 0.931912 0.37084 42.4933 -0.863096 6.80447 25.8593 -17.5204
22.3644 84.9302 31.494 4.2282 -51.5788 -4.1548 0.814592 11.0545 0.443059 1.96739 -3.81301 0.311408 -13.842 -0.565736 -8.1537 20.2441 9.04523 -14.4076 -0.0 0.0 0.0 -0.0 0.0 0.0 1.68592e-14 1.00297e-13 -3.26291e-13 83.3966 8.33447 -5.71631 -12.2188 -5.60369 22.0334 -0.110731 9.46013 1.34182 1.41009e-09 -4.62134e-10 -1.80409e-09 2.4226e-09 -8.01679e-10 -3.134e-09 1.41011e-09 -4.62132e-10 -1.80411e-09 7.73091 5.47488 0.417314 1.41009e-09 -4.62136e-10 -1.8041e-09 2.90554 0.965183 0.102902 1.41011e-09 -4.62135e-10 -1.8041e-09 10.2786 0.731801 0.0259123 1.41009e-09 -4.62134e-10 -1.80408e-09 2.22167 -0.733487 -0.20892 1.66371e-14 1.00288e-13 -3.26462e-13 -74.6871 21.8052 0.786566 17.2656 -9.91821 -32.3928 0.00669052 2.34035 -0.329101 1.16114e-09 -1.76502e-09 1.2851e-10 2.00979e-09 -3.05997e-09 2.18948e-10 1.16114e-09 -1.76501e-09 1.28531e-10 -7.73091 5.47488 -0.417314 1.16114e-09 -1.76502e-09 1.28516e-10 -2.90554 0.965183 -0.102902 1.16114e-09 -1.76502e-09 1.28514e-10 -10.2786 0.731801 -0.0259123 1.16115e-09 -1.76502e-09 1.28512e-10 -2.22167 -0.733487 0.20892 -2.03217e-16 0.0 -3.88251e-19 6.13124 -18.1559 -6.12263 -0.0958588 21.6232 -0.0696822 -1.00735 -0.428717 -5.20962 2.03217e-16 0.0 3.88251e-19 2.87951 -2.42157 1.46098 0.422557 44.7793 -0.951445 7.33577 26.5316 -18.5239
21.7178 84.9128 31.7823 3.7461 -52.1538 -3.9098 1.16401 11.1205 0.724306 1.91746 -3.87362 0.40771 -13.6431 -0.477552 -8.13108 20.0488 8.90139 -14.399 -0.0 0.0 0.0 -0.0 0.0 0.0 -2.83712e-14 2.73115e-14 -1.81192e-13 83.3312 9.14647 -5.4576 -12.3446 -5.69325 22.2789 -0.105743 9.23444 1.30929 1.4374e-09 3.17038e-11 -1.8071e-09 2.46986e-09 5.28386e-11 -3.13873e-09 1.43741e-09 3.17066e-11 -1.80711e-09 7.73091 5.47488 0.417314 1.4374e-09 3.17015e-11 -1.80711e-09 2.90554 0.965183 0.102902 1.43742e-09 3.17038e-11 -1.8071e-09 10.2786 0.731801 0.0259123 1.4374e-09 3.17046e-11 -1.80709e-09 2.22167 -0.733487 -0.20892 -2.86321e-14 2.73026e-14 -1.81341e-13 -74.9562 22.3117 1.04531 17.2479 -9.90035 -32.354 0.00857306 2.64271 -0.371675 1.17097e-09 -6.65817e-10 6.06115e-10 2.02793e-09 -1.15674e-09 1.04528e-09 1.17096e-09 -6.65802e-10 6.06137e-10 -7.73091 5.47488 -0.417314 1.17097e-09 -6.6582e-10 6.06121e-10 -2.90554 0.965183 -0.102902 1.17096e-09 -6.65821e-10 6.06121e-10 -10.2786 0.731801 -0.0259123 1.17098e-09 -6.65819e-10 6.06118e-10 -2.22167 -0.733487 0.20892 -2.03217e-16 0.0 -3.88251e-19 6.74173 -17.5969 -5.84705 -0.0902056 21.4871 -0.0826528 -1.00108 -0.766331 -4.82752 2.03217e-16 0.0 3.88251e-19 3.46881 -3.8425 1.86511 0.483191 46.927 -1.02917 7.49666 26.7596 -18.8782
21.072 84.8879 32.0337 3.1796 -52.7769 -3.5076 1.44531 11.1789 0.98767 1.90119 -3.92993 0.497459 -13.5426 -0.326011 -8.11466 19.9967 8.72702 -14.3961 -0.0 0.0 0.0 -0.0 0.0 0.0 -2.28998e-14 1.54709e-14 -1.75824e-13 83.2371 9.72094 -5.14681 -12.4394 -5.76107 22.4645 -0.106491 9.2628 1.31339 1.22273e-09 -5.01036e-11 -1.44928e-09 2.10167e-09 -8.81234e-11 -2.51761e-09 1.22274e-09 -5.01022e-11 -1.44929e-09 7.73091 5.47488 0.417314 1.22273e-09 -5.01069e-11 -1.44928e-09 2.90554 0.965183 0.102902 1.22275e-09 -5.01046e-11 -1.44928e-09 10.2786 0.731801 0.0259123 1.22273e-09 -5.01036e-11 -1.44927e-09 2.22167 -0.733487 -0.20892 -2.31336e-14 1.54638e-14 -1.75962e-13 -75.2161 22.892 1.28114 17.2156 -9.86754 -32.2834 0.0106448 2.96316 -0.416811 1.08745e-09 -8.55742e-10 3.63273e-10 1.88223e-09 -1.48699e-09 6.24608e-10 1.08745e-09 -8.55729e-10 3.63292e-10 -7.73091 5.47488 -0.417314 1.08745e-09 -8.55746e-10 3.63278e-10 -2.90554 0.965183 -0.102902 1.08744e-09 -8.55745e-10 3.63279e-10 -10.2786 0.731801 -0.0259123 1.08746e-09 -8.55744e-10 3.63277e-10 -2.22167 -0.733487 0.20892 -2.03217e-16 0.0 -3.88251e-19 7.25209 -17.0506 -5.66296 -0.085266 21.3962 -0.091046 -0.9919 -1.13557 -4.42759 2.03217e-16 0.0 3.88251e-19 4.00571 -5.22329 2.09785 0.550664 48.9458 -1.08744 7.12392 26.4351 -18.2968
